# xmcd
#
# Track frame offsets:
#  150
#  13695
#  27171
#  51313
#  74536
#  90449
#  101980
#  113542
#  132114
#  145805
#  160673
#  182558
#
# Disc length: 2845 seconds
#
# Revision: 0
# Processed by: cddbd v1.4PL0 Copyright (c) Steve Scherf et al.
# Submitted via: AltoMP3_Maker 3.0
#
DISCID=9a0b1b0c
DTITLE=Rickie Simpkins - Dancing On The Fingerboard
DYEAR=1900
DGENRE=
TTITLE0=Oh, What A Silent Night
TTITLE1=Cattle In The Cane
TTITLE2=Piney Wood Hills
TTITLE3=Wacahota Station
TTITLE4=He Rode All The Way To Texas
TTITLE5=Temperance Reel
TTITLE6=Papa Gene's Blues
TTITLE7=Maiden's Prayer
TTITLE8=Back To Dixie
TTITLE9=Dusty Miller
TTITLE10=Ashokan Farewell
TTITLE11=Sally Goodin'
EXTD=
EXTT0=
EXTT1=
EXTT2=
EXTT3=
EXTT4=
EXTT5=
EXTT6=
EXTT7=
EXTT8=
EXTT9=
EXTT10=
EXTT11=
PLAYORDER=
